<svg width="152" height="27" viewBox="0 0 152 27" fill="none" xmlns="http://www.w3.org/2000/svg">
<path d="M137.261 25.5841C137.154 25.5841 137.058 25.5521 136.973 25.4881C136.909 25.4028 136.877 25.3067 136.877 25.2001V3.56808C136.877 3.46142 136.909 3.37608 136.973 3.31208C137.058 3.22675 137.154 3.18408 137.261 3.18408H141.805C141.912 3.18408 141.997 3.22675 142.061 3.31208C142.146 3.37608 142.189 3.46142 142.189 3.56808V10.8001C142.189 10.8854 142.21 10.9281 142.253 10.9281C142.296 10.9281 142.338 10.8961 142.381 10.8321L145.741 3.47208C145.826 3.28008 145.976 3.18408 146.189 3.18408H150.989C151.138 3.18408 151.234 3.22675 151.277 3.31208C151.341 3.37608 151.341 3.48275 151.277 3.63208L146.637 13.0401C146.616 13.1254 146.605 13.1894 146.605 13.2321L151.469 25.1361C151.49 25.1788 151.501 25.2428 151.501 25.3281C151.501 25.4987 151.394 25.5841 151.181 25.5841H146.349C146.114 25.5841 145.965 25.4881 145.901 25.2961L143.021 17.8081C143 17.7441 142.968 17.7121 142.925 17.7121C142.882 17.7121 142.84 17.7441 142.797 17.8081L142.221 18.9601C142.2 19.0027 142.189 19.0668 142.189 19.1521V25.2001C142.189 25.3067 142.146 25.4028 142.061 25.4881C141.997 25.5521 141.912 25.5841 141.805 25.5841H137.261Z" fill="#0F2473"/>
<path d="M135.04 7.34408C135.04 7.45075 134.997 7.54675 134.912 7.63208C134.848 7.69608 134.763 7.72808 134.656 7.72808H128.224C128.117 7.72808 128.064 7.78142 128.064 7.88808V11.9201C128.064 12.0267 128.117 12.0801 128.224 12.0801H131.744C131.851 12.0801 131.936 12.1228 132 12.2081C132.085 12.2721 132.128 12.3574 132.128 12.4641V16.2721C132.128 16.3787 132.085 16.4747 132 16.5601C131.936 16.6241 131.851 16.6561 131.744 16.6561H128.224C128.117 16.6561 128.064 16.7094 128.064 16.8161V20.8801C128.064 20.9867 128.117 21.0401 128.224 21.0401H134.656C134.763 21.0401 134.848 21.0828 134.912 21.1681C134.997 21.2321 135.04 21.3174 135.04 21.4241V25.2001C135.04 25.3067 134.997 25.4028 134.912 25.4881C134.848 25.5521 134.763 25.5841 134.656 25.5841H123.136C123.029 25.5841 122.933 25.5521 122.848 25.4881C122.784 25.4028 122.752 25.3067 122.752 25.2001V3.56808C122.752 3.46142 122.784 3.37608 122.848 3.31208C122.933 3.22675 123.029 3.18408 123.136 3.18408H134.656C134.763 3.18408 134.848 3.22675 134.912 3.31208C134.997 3.37608 135.04 3.46142 135.04 3.56808V7.34408Z" fill="#0F2473"/>
<path d="M120.565 3.18408C120.672 3.18408 120.757 3.22675 120.821 3.31208C120.906 3.37608 120.949 3.46142 120.949 3.56808V7.34408C120.949 7.45075 120.906 7.54675 120.821 7.63208C120.757 7.69608 120.672 7.72808 120.565 7.72808H116.597C116.49 7.72808 116.437 7.78142 116.437 7.88808V25.2001C116.437 25.3067 116.394 25.4028 116.309 25.4881C116.245 25.5521 116.16 25.5841 116.053 25.5841H111.509C111.402 25.5841 111.306 25.5521 111.221 25.4881C111.157 25.4028 111.125 25.3067 111.125 25.2001V7.88808C111.125 7.78142 111.072 7.72808 110.965 7.72808H107.157C107.05 7.72808 106.954 7.69608 106.869 7.63208C106.805 7.54675 106.773 7.45075 106.773 7.34408V3.56808C106.773 3.46142 106.805 3.37608 106.869 3.31208C106.954 3.22675 107.05 3.18408 107.157 3.18408H120.565Z" fill="#0F2473"/>
<path d="M102.496 7.568C101.707 7.568 101.045 7.312 100.512 6.8C100 6.26667 99.7441 5.59467 99.7441 4.784C99.7441 3.952 100 3.28 100.512 2.768C101.024 2.256 101.685 2 102.496 2C103.307 2 103.968 2.256 104.48 2.768C105.013 3.28 105.28 3.952 105.28 4.784C105.28 5.57333 105.013 6.23467 104.48 6.768C103.968 7.30133 103.307 7.568 102.496 7.568ZM100.288 25.584C100.181 25.584 100.085 25.552 100 25.488C99.9361 25.4027 99.9041 25.3067 99.9041 25.2V9.424C99.9041 9.31733 99.9361 9.232 100 9.168C100.085 9.08267 100.181 9.04 100.288 9.04H104.832C104.939 9.04 105.024 9.08267 105.088 9.168C105.173 9.232 105.216 9.31733 105.216 9.424V25.2C105.216 25.3067 105.173 25.4027 105.088 25.488C105.024 25.552 104.939 25.584 104.832 25.584H100.288Z" fill="#0F2473"/>
<path d="M102.496 7.568C101.707 7.568 101.045 7.312 100.512 6.8C100 6.26667 99.7441 5.59467 99.7441 4.784C99.7441 3.952 100 3.28 100.512 2.768C101.024 2.256 101.685 2 102.496 2C103.307 2 103.968 2.256 104.48 2.768C105.013 3.28 105.28 3.952 105.28 4.784C105.28 5.57333 105.013 6.23467 104.48 6.768C103.968 7.30133 103.307 7.568 102.496 7.568Z" fill="#12B3FD"/>
<path d="M86.4655 25.5841C86.3589 25.5841 86.2629 25.5521 86.1775 25.4881C86.1135 25.4028 86.0815 25.3067 86.0815 25.2001V21.2961C86.0815 21.1894 86.1242 21.0294 86.2095 20.8161L92.6735 7.92008C92.6949 7.85608 92.6949 7.81342 92.6735 7.79208C92.6522 7.74942 92.6095 7.72808 92.5455 7.72808H86.4655C86.3589 7.72808 86.2629 7.69608 86.1775 7.63208C86.1135 7.54675 86.0815 7.45075 86.0815 7.34408V3.56808C86.0815 3.46142 86.1135 3.37608 86.1775 3.31208C86.2629 3.22675 86.3589 3.18408 86.4655 3.18408H97.9855C98.0922 3.18408 98.1775 3.22675 98.2415 3.31208C98.3269 3.37608 98.3695 3.46142 98.3695 3.56808V7.47208C98.3695 7.57875 98.3269 7.73875 98.2415 7.95208L91.7135 20.8481C91.6922 20.9121 91.6922 20.9654 91.7135 21.0081C91.7349 21.0294 91.7775 21.0401 91.8415 21.0401H97.9855C98.0922 21.0401 98.1775 21.0828 98.2415 21.1681C98.3269 21.2321 98.3695 21.3174 98.3695 21.4241V25.2001C98.3695 25.3067 98.3269 25.4028 98.2415 25.4881C98.1775 25.5521 98.0922 25.5841 97.9855 25.5841H86.4655Z" fill="#0F2473"/>
<path d="M80.1357 25.5841C79.8797 25.5841 79.7411 25.4668 79.7197 25.2321L79.3037 22.4481C79.3037 22.3414 79.2397 22.2881 79.1117 22.2881H75.6557C75.5277 22.2881 75.4637 22.3414 75.4637 22.4481L75.0797 25.2321C75.0584 25.4668 74.9197 25.5841 74.6637 25.5841H70.1197C69.8424 25.5841 69.7357 25.4454 69.7997 25.1681L74.4397 3.53608C74.4824 3.30142 74.6211 3.18408 74.8557 3.18408H80.0717C80.3064 3.18408 80.4451 3.30142 80.4877 3.53608L85.0957 25.1681L85.1277 25.2961C85.1277 25.4881 85.0104 25.5841 84.7757 25.5841H80.1357ZM76.1677 18.0321C76.1677 18.1388 76.2104 18.1921 76.2957 18.1921H78.4397C78.5251 18.1921 78.5677 18.1388 78.5677 18.0321L77.4157 10.7361C77.3944 10.6508 77.3624 10.6081 77.3197 10.6081C77.2771 10.6081 77.2451 10.6508 77.2237 10.7361L76.1677 18.0321Z" fill="#0F2473"/>
<path d="M54.695 25.5841C54.4604 25.5841 54.3217 25.4668 54.279 25.2321L49.927 3.60008L49.895 3.47208C49.895 3.28008 50.0124 3.18408 50.247 3.18408H54.951C55.207 3.18408 55.3457 3.30142 55.367 3.53608L56.807 14.0641C56.8284 14.1281 56.8604 14.1601 56.903 14.1601C56.9457 14.1601 56.9777 14.1281 56.999 14.0641L58.439 3.53608C58.4604 3.30142 58.599 3.18408 58.855 3.18408H62.599C62.855 3.18408 62.9937 3.30142 63.015 3.53608L64.615 14.0641C64.6364 14.1281 64.6684 14.1601 64.711 14.1601C64.7537 14.1601 64.775 14.1281 64.775 14.0641L66.087 3.53608C66.1084 3.30142 66.2364 3.18408 66.471 3.18408H71.079C71.3564 3.18408 71.4737 3.32275 71.431 3.60008L67.303 25.2321C67.2817 25.4668 67.143 25.5841 66.887 25.5841H62.791C62.535 25.5841 62.3964 25.4668 62.375 25.2321L60.775 14.2881C60.7537 14.2241 60.711 14.1921 60.647 14.1921C60.6044 14.1921 60.583 14.2241 60.583 14.2881L59.175 25.2321C59.1537 25.4668 59.0257 25.5841 58.791 25.5841H54.695Z" fill="#0F2473"/>
<path d="M41.656 25.8401C40.3333 25.8401 39.1707 25.5627 38.168 25.0081C37.1653 24.4321 36.3867 23.6321 35.832 22.6081C35.2773 21.5841 35 20.4001 35 19.0561V3.56808C35 3.46142 35.032 3.37608 35.096 3.31208C35.1813 3.22675 35.2773 3.18408 35.384 3.18408H39.928C40.0347 3.18408 40.12 3.22675 40.184 3.31208C40.2693 3.37608 40.312 3.46142 40.312 3.56808V19.5681C40.312 20.0801 40.4293 20.4961 40.664 20.8161C40.92 21.1361 41.2507 21.2961 41.656 21.2961C42.0613 21.2961 42.3813 21.1361 42.616 20.8161C42.872 20.4961 43 20.0801 43 19.5681V3.56808C43 3.46142 43.032 3.37608 43.096 3.31208C43.1813 3.22675 43.2773 3.18408 43.384 3.18408H47.928C48.0347 3.18408 48.12 3.22675 48.184 3.31208C48.2693 3.37608 48.312 3.46142 48.312 3.56808V19.0561C48.312 20.4001 48.0347 21.5841 47.48 22.6081C46.9253 23.6321 46.1467 24.4321 45.144 25.0081C44.1413 25.5627 42.9787 25.8401 41.656 25.8401Z" fill="#0F2473"/>
<g clip-path="url(#clip0_74_231)">
<path d="M0.00839591 9.33313H5.05111C5.05111 9.49382 5.05111 9.65544 5.05111 9.81705C5.05111 11.3556 5.05111 12.8942 5.05111 14.4328C5.05111 17.7824 6.76901 20.0312 10.0491 20.8633C12.2463 21.4211 14.4361 21.3398 16.5056 20.347C18.8139 19.2406 19.906 17.3271 19.9573 14.8271C19.9946 13.0134 19.9648 11.1977 19.9648 9.34698H24.9562C24.9674 9.37469 25 9.41532 24.9991 9.45503C24.9758 11.762 25.0522 14.0754 24.9021 16.374C24.5561 21.6612 20.8918 25.6831 15.6318 26.6722C12.4273 27.2753 9.28244 27.1099 6.32321 25.6443C2.7811 23.8896 0.786207 20.9658 0.223833 17.1286C0.00186751 15.6158 0.0559599 14.0625 0.0139917 12.5267C-0.0149198 11.4812 0.00839591 10.4349 0.00839591 9.33313Z" fill="#0F2473"/>
<path d="M10.2794 5.65932H0.0317383V0H24.9767V5.66117H15.3082V15.4865H10.2785V5.65932H10.2794Z" fill="#12B3FD"/>
</g>
<defs>
<clipPath id="clip0_74_231">
<rect width="25" height="27" fill="white"/>
</clipPath>
</defs>
</svg>
