<svg width="24" height="24" viewBox="0 0 24 24" fill="none" xmlns="http://www.w3.org/2000/svg">
<path d="M4 10.143C4 5.646 7.582 2 12 2C16.418 2 20 5.646 20 10.143C20 14.605 17.447 19.813 13.463 21.674C13.0051 21.8884 12.5056 21.9996 12 21.9996C11.4944 21.9996 10.9949 21.8884 10.537 21.674C6.553 19.812 4 14.606 4 10.144V10.143Z" stroke="black" stroke-width="1.5"/>
<path d="M12 14C14.2091 14 16 12.2091 16 10C16 7.79086 14.2091 6 12 6C9.79086 6 8 7.79086 8 10C8 12.2091 9.79086 14 12 14Z" stroke="black" stroke-width="1.5"/>
<path d="M10.5 10H13.5M12 11.5V8.5" stroke="black" stroke-width="1.5" stroke-linecap="round"/>
</svg>
