<svg width="21" height="21" viewBox="0 0 21 21" fill="none" xmlns="http://www.w3.org/2000/svg">
<path d="M1 10.5C1 6.022 1 3.782 2.391 2.391C3.782 1 6.021 1 10.5 1C14.978 1 17.218 1 18.609 2.391C20 3.782 20 6.021 20 10.5C20 14.978 20 17.218 18.609 18.609C17.218 20 14.979 20 10.5 20C6.022 20 3.782 20 2.391 18.609C1 17.218 1 14.979 1 10.5Z" stroke="#980000" stroke-width="1.5" stroke-linecap="round" stroke-linejoin="round"/>
<path d="M5.53711 10.528H12.5131M12.5131 10.528C12.5131 11.098 10.3581 13.015 10.3581 13.015M12.5131 10.528C12.5131 9.942 10.3581 8.06299 10.3581 8.06299M15.5381 6.495V14.495" stroke="#980000" stroke-width="1.5" stroke-linecap="round" stroke-linejoin="round"/>
</svg>
