<svg width="28" height="28" viewBox="0 0 28 28" fill="none" xmlns="http://www.w3.org/2000/svg">
<path fill-rule="evenodd" clip-rule="evenodd" d="M6.52157 7.21829C6.06764 8.2528 5.8333 9.37024 5.83333 10.5V14.616C5.83314 14.797 5.7908 14.9756 5.70967 15.1375L3.70767 19.1426C3.60981 19.3383 3.56361 19.5557 3.57344 19.7743C3.58327 19.9928 3.64881 20.2053 3.76384 20.3913C3.87886 20.5774 4.03955 20.7311 4.23065 20.8376C4.42174 20.9441 4.63689 21 4.85567 21H9.48033C9.73984 22.0012 10.3245 22.888 11.1425 23.521C11.9606 24.1541 12.9656 24.4976 14 24.4976C15.0344 24.4976 16.0394 24.1541 16.8575 23.521C17.6755 22.888 18.2602 22.0012 18.5197 21H23.1443C23.3631 21 23.5783 20.9441 23.7694 20.8376C23.9605 20.7311 24.1211 20.5774 24.2362 20.3913C24.3512 20.2053 24.4167 19.9928 24.4266 19.7743C24.4364 19.5557 24.3902 19.3383 24.2923 19.1426L22.2892 15.1375C22.2084 14.9755 22.1665 14.7969 22.1667 14.616V12.8333C22.1667 12.5239 22.0438 12.2271 21.825 12.0083C21.6062 11.7895 21.3094 11.6666 21 11.6666C20.6906 11.6666 20.3938 11.7895 20.175 12.0083C19.9562 12.2271 19.8333 12.5239 19.8333 12.8333V14.616C19.8334 15.1595 19.96 15.6955 20.2032 16.1816L21.4457 18.6666H6.55433L7.79683 16.1816C8.04001 15.6955 8.16663 15.1595 8.16667 14.616V10.5C8.16659 9.69275 8.33403 8.89433 8.65841 8.15518C8.98279 7.41603 9.45705 6.75224 10.0512 6.20582C10.6453 5.65939 11.3464 5.24222 12.11 4.98069C12.8737 4.71916 13.6833 4.61897 14.4877 4.68645C14.6417 4.70165 14.7973 4.68604 14.9452 4.64053C15.0932 4.59501 15.2306 4.52051 15.3495 4.42135C15.4684 4.3222 15.5663 4.20038 15.6377 4.06299C15.709 3.9256 15.7523 3.77538 15.765 3.6211C15.7776 3.46682 15.7595 3.31155 15.7116 3.16435C15.6637 3.01715 15.587 2.88095 15.4859 2.7637C15.3848 2.64644 15.2614 2.55048 15.1229 2.48139C14.9844 2.4123 14.8335 2.37147 14.679 2.36128C13.5532 2.26736 12.4202 2.40803 11.3515 2.7744C10.2828 3.14077 9.30183 3.72488 8.47047 4.48979C7.6391 5.25471 6.97549 6.18379 6.52157 7.21829ZM12.8334 21.8539C12.4787 21.6492 12.1841 21.3546 11.9793 21H16.0207C15.8159 21.3546 15.5213 21.6492 15.1666 21.8539C14.8119 22.0587 14.4096 22.1665 14 22.1665C13.5904 22.1665 13.1881 22.0587 12.8334 21.8539Z" fill="#0F2473"/>
<path fill-rule="evenodd" clip-rule="evenodd" d="M16.3333 6.41662C16.3333 5.33365 16.7635 4.29504 17.5293 3.52927C18.2951 2.76349 19.3337 2.33328 20.4167 2.33328C21.4996 2.33328 22.5382 2.76349 23.304 3.52927C24.0698 4.29504 24.5 5.33365 24.5 6.41662C24.5 7.49959 24.0698 8.5382 23.304 9.30397C22.5382 10.0697 21.4996 10.5 20.4167 10.5C19.3337 10.5 18.2951 10.0697 17.5293 9.30397C16.7635 8.5382 16.3333 7.49959 16.3333 6.41662ZM19.747 4.79983C19.9593 4.71188 20.1869 4.66662 20.4167 4.66662C20.8808 4.66662 21.3259 4.85099 21.6541 5.17918C21.9823 5.50737 22.1667 5.95249 22.1667 6.41662C22.1667 6.88075 21.9823 7.32587 21.6541 7.65405C21.3259 7.98224 20.8808 8.16662 20.4167 8.16662C20.1869 8.16662 19.9593 8.12135 19.747 8.03341C19.5347 7.94546 19.3417 7.81656 19.1792 7.65405C19.0167 7.49155 18.8878 7.29863 18.7999 7.08631C18.7119 6.87399 18.6667 6.64643 18.6667 6.41662C18.6667 6.1868 18.7119 5.95924 18.7999 5.74692C18.8878 5.5346 19.0167 5.34168 19.1792 5.17918C19.3417 5.01668 19.5347 4.88777 19.747 4.79983Z" fill="#980000"/>
</svg>
