<svg width="28" height="28" viewBox="0 0 28 28" fill="none" xmlns="http://www.w3.org/2000/svg">
<path fill-rule="evenodd" clip-rule="evenodd" d="M6.52157 7.21836C6.06764 8.25286 5.8333 9.3703 5.83333 10.5V14.616C5.83314 14.7971 5.7908 14.9756 5.70967 15.1375L3.70767 19.1427C3.60981 19.3384 3.56361 19.5558 3.57344 19.7743C3.58327 19.9929 3.64881 20.2053 3.76384 20.3914C3.87886 20.5775 4.03955 20.7311 4.23065 20.8376C4.42174 20.9441 4.63689 21 4.85567 21H9.48033C9.73984 22.0013 10.3245 22.8881 11.1425 23.5211C11.9606 24.1541 12.9656 24.4976 14 24.4976C15.0344 24.4976 16.0394 24.1541 16.8575 23.5211C17.6755 22.8881 18.2602 22.0013 18.5197 21H23.1443C23.3631 21 23.5783 20.9441 23.7694 20.8376C23.9605 20.7311 24.1211 20.5775 24.2362 20.3914C24.3512 20.2053 24.4167 19.9929 24.4266 19.7743C24.4364 19.5558 24.3902 19.3384 24.2923 19.1427L22.2892 15.1375C22.2084 14.9755 22.1665 14.797 22.1667 14.616V12.8333C22.1667 12.5239 22.0438 12.2272 21.825 12.0084C21.6062 11.7896 21.3094 11.6667 21 11.6667C20.6906 11.6667 20.3938 11.7896 20.175 12.0084C19.9562 12.2272 19.8333 12.5239 19.8333 12.8333V14.616C19.8334 15.1595 19.96 15.6956 20.2032 16.1817L21.4457 18.6667H6.55433L7.79683 16.1817C8.04001 15.6956 8.16663 15.1595 8.16667 14.616V10.5C8.16659 9.69282 8.33403 8.89439 8.65841 8.15524C8.98279 7.41609 9.45705 6.7523 10.0512 6.20588C10.6453 5.65945 11.3464 5.24228 12.11 4.98075C12.8737 4.71922 13.6833 4.61903 14.4877 4.68651C14.6417 4.70171 14.7973 4.6861 14.9452 4.64059C15.0932 4.59507 15.2306 4.52057 15.3495 4.42141C15.4684 4.32226 15.5663 4.20044 15.6377 4.06305C15.709 3.92566 15.7523 3.77544 15.765 3.62116C15.7776 3.46688 15.7595 3.31161 15.7116 3.16441C15.6637 3.01721 15.587 2.88101 15.4859 2.76376C15.3848 2.6465 15.2614 2.55054 15.1229 2.48145C14.9844 2.41236 14.8335 2.37153 14.679 2.36135C13.5532 2.26742 12.4202 2.40809 11.3515 2.77446C10.2828 3.14083 9.30183 3.72494 8.47047 4.48985C7.6391 5.25477 6.97549 6.18385 6.52157 7.21836ZM12.8334 21.854C12.4787 21.6492 12.1841 21.3547 11.9793 21H16.0207C15.8159 21.3547 15.5213 21.6492 15.1666 21.854C14.8119 22.0588 14.4096 22.1666 14 22.1666C13.5904 22.1666 13.1881 22.0588 12.8334 21.854Z" fill="white"/>
<path fill-rule="evenodd" clip-rule="evenodd" d="M16.3333 6.41668C16.3333 5.33371 16.7635 4.2951 17.5293 3.52933C18.2951 2.76355 19.3337 2.33335 20.4167 2.33335C21.4996 2.33335 22.5382 2.76355 23.304 3.52933C24.0698 4.2951 24.5 5.33371 24.5 6.41668C24.5 7.49965 24.0698 8.53826 23.304 9.30403C22.5382 10.0698 21.4996 10.5 20.4167 10.5C19.3337 10.5 18.2951 10.0698 17.5293 9.30403C16.7635 8.53826 16.3333 7.49965 16.3333 6.41668ZM19.747 4.79989C19.9593 4.71194 20.1869 4.66668 20.4167 4.66668C20.8808 4.66668 21.3259 4.85105 21.6541 5.17924C21.9823 5.50743 22.1667 5.95255 22.1667 6.41668C22.1667 6.88081 21.9823 7.32593 21.6541 7.65412C21.3259 7.9823 20.8808 8.16668 20.4167 8.16668C20.1869 8.16668 19.9593 8.12141 19.747 8.03347C19.5347 7.94552 19.3417 7.81662 19.1792 7.65412C19.0167 7.49161 18.8878 7.29869 18.7999 7.08637C18.7119 6.87405 18.6667 6.64649 18.6667 6.41668C18.6667 6.18687 18.7119 5.9593 18.7999 5.74698C18.8878 5.53466 19.0167 5.34174 19.1792 5.17924C19.3417 5.01674 19.5347 4.88784 19.747 4.79989Z" fill="#980000"/>
</svg>
